<?xml version="1.0" encoding="UTF-8" standalone="no"?>
<!DOCTYPE svg PUBLIC "-//W3C//DTD SVG 1.1//EN" "http://www.w3.org/Graphics/SVG/1.1/DTD/svg11.dtd">
<svg xmlns="http://www.w3.org/2000/svg" xmlns:xlink="http://www.w3.org/1999/xlink" version="1.1" width="228.528pt" height="174.68pt" viewBox="0 0 228.528 174.68">
<path transform="matrix(1,0,0,-1,21.696,174.48099)" d="M 48.56804 116.55965 L 52.61528 117.36781 L 56.66255 118.29266 L 60.70982 119.32654 L 64.7571 120.46152 L 68.80435 121.68982 L 72.85162 123.00381 L 76.8989 124.39574 L 80.94617 125.85757 L 84.99344 127.3818 L 89.0407 128.96044 L 93.08797 130.58571 L 97.13524 132.25 L 101.18251 133.94539 L 105.22977 135.66413 L 109.27704 137.39839 L 113.32431 139.14052 L 117.37158 140.88259 L 121.41885 142.61696 L 125.46611 144.33568 L 129.51338 146.03112 L 133.56064 147.69539 L 137.60791 149.32067 L 141.65517 150.89942 L 145.70244 152.42353 L 145.70244 8.96672 L 141.65517 10.49083 L 137.60791 12.0696 L 133.56064 13.69485 L 129.51338 15.35915 L 125.46611 17.05458 L 121.41885 18.7733 L 117.37158 20.50768 L 113.32431 22.24973 L 109.27704 23.99187 L 105.22977 25.72614 L 101.18251 27.44487 L 97.13524 29.14026 L 93.08797 30.80455 L 89.0407 32.42982 L 84.99344 34.00844 L 80.94617 35.53267 L 76.8989 36.99452 L 72.85162 38.38643 L 68.80435 39.70042 L 64.7571 40.92874 L 60.70982 42.06372 L 56.66255 43.09758 L 52.61528 44.02245 L 48.56804 44.83063 Z " fill="#cccce6"/>
<path transform="matrix(1,0,0,-1,21.696,174.48099)" d="M 38.85443 80.69513 L 39.05063 87.86732 L 39.24683 90.78612 L 39.44304 92.99022 L 39.63925 94.81807 L 39.83546 96.4018 L 40.03168 97.80919 L 40.22789 99.08046 L 40.4241 100.24281 L 40.62032 101.3143 L 40.81653 102.30862 L 41.01274 103.23582 L 41.20895 104.10399 L 41.40517 104.91945 L 41.60138 105.68732 L 41.79758 106.41191 L 41.99379 107.09676 L 42.19 107.7449 L 42.38622 108.3589 L 42.58243 108.941 L 42.77864 109.49312 L 42.97484 110.01694 L 43.17105 110.51398 L 43.36726 110.98555 L 43.56348 111.43283 L 43.75969 111.85687 L 43.9559 112.25856 L 44.15211 112.63882 L 44.34833 112.99829 L 44.54453 113.33783 L 44.74074 113.65787 L 44.93695 113.9591 L 45.13316 114.24197 L 45.32938 114.50696 L 45.52559 114.7545 L 45.7218 114.98494 L 45.91801 115.19865 L 46.11423 115.3959 L 46.31044 115.57701 L 46.50664 115.74222 L 46.70285 115.89171 L 46.89906 116.02577 L 47.09528 116.1445 L 47.29147 116.24806 L 47.48769 116.33661 L 47.6839 116.41023 L 47.88011 116.46904 L 48.07632 116.51312 L 48.27254 116.54251 L 48.46875 116.55722 L 48.66496 116.5573 L 48.86118 116.54276 L 49.05739 116.51355 L 49.2536 116.46968 L 49.44981 116.41103 L 49.64603 116.33755 L 49.84224 116.24918 L 50.03842 116.14581 L 50.23463 116.02728 L 50.43085 115.89342 L 50.62706 115.7441 L 50.82327 115.57909 L 51.01949 115.39818 L 51.2157 115.20108 L 51.41191 114.98761 L 51.60812 114.75735 L 51.80434 114.51004 L 52.00055 114.24525 L 52.19676 113.96259 L 52.39297 113.66159 L 52.58919 113.34174 L 52.78539 113.00249 L 52.9816 112.64323 L 53.17781 112.26321 L 53.37402 111.86177 L 53.57024 111.43803 L 53.76643 110.99103 L 53.96265 110.51976 L 54.15886 110.02303 L 54.35507 109.49953 L 54.55128 108.94775 L 54.7475 108.36606 L 54.94371 107.75243 L 55.13992 107.1047 L 55.33614 106.4203 L 55.53233 105.69621 L 55.72855 104.9289 L 55.92476 104.11404 L 56.12097 103.24657 L 56.31718 102.32004 L 56.5134 101.3266 L 56.70961 100.2561 L 56.90582 99.09492 L 57.10204 97.8251 L 57.29823 96.41951 L 57.49445 94.83832 L 57.69066 93.01385 L 57.88687 90.81555 L 58.08308 87.90936 L 58.27928 81.4824 L 58.27928 79.90784 L 58.08308 73.48088 L 57.88687 70.5747 L 57.69066 68.37639 L 57.49445 66.55193 L 57.29823 64.97073 L 57.10204 63.56516 L 56.90582 62.29533 L 56.70961 61.13416 L 56.5134 60.06364 L 56.31718 59.07022 L 56.12097 58.14368 L 55.92476 57.27621 L 55.72855 56.46135 L 55.53233 55.69403 L 55.33614 54.96996 L 55.13992 54.28554 L 54.94371 53.63783 L 54.7475 53.02419 L 54.55128 52.4425 L 54.35507 51.89073 L 54.15886 51.36723 L 53.96265 50.8705 L 53.76643 50.39922 L 53.57024 49.95222 L 53.37402 49.52847 L 53.17781 49.12704 L 52.9816 48.74702 L 52.78539 48.38777 L 52.58919 48.04852 L 52.39297 47.72865 L 52.19676 47.42767 L 52.00055 47.14499 L 51.80434 46.88022 L 51.60812 46.6329 L 51.41191 46.40265 L 51.2157 46.18916 L 51.01949 45.99207 L 50.82327 45.81117 L 50.62706 45.64615 L 50.43085 45.49684 L 50.23463 45.36298 L 50.03842 45.24445 L 49.84224 45.14108 L 49.64603 45.0527 L 49.44981 44.97923 L 49.2536 44.92058 L 49.05739 44.87671 L 48.86118 44.8475 L 48.66496 44.83295 L 48.46875 44.83302 L 48.27254 44.84775 L 48.07632 44.87714 L 47.88011 44.92122 L 47.6839 44.98001 L 47.48769 45.05363 L 47.29147 45.1422 L 47.09528 45.24574 L 46.89906 45.36447 L 46.70285 45.49854 L 46.50664 45.64804 L 46.31044 45.81323 L 46.11423 45.99435 L 45.91801 46.1916 L 45.7218 46.4053 L 45.52559 46.63576 L 45.32938 46.88329 L 45.13316 47.14827 L 44.93695 47.43115 L 44.74074 47.73238 L 44.54453 48.05243 L 44.34833 48.39197 L 44.15211 48.75143 L 43.9559 49.1317 L 43.75969 49.53337 L 43.56348 49.95741 L 43.36726 50.40471 L 43.17105 50.87627 L 42.97484 51.37332 L 42.77864 51.89713 L 42.58243 52.44926 L 42.38622 53.03134 L 42.19 53.64534 L 41.99379 54.29349 L 41.79758 54.97835 L 41.60138 55.70293 L 41.40517 56.4708 L 41.20895 57.28625 L 41.01274 58.15443 L 40.81653 59.08163 L 40.62032 60.07594 L 40.4241 61.14745 L 40.22789 62.3098 L 40.03168 63.58107 L 39.83546 64.98846 L 39.63925 66.57217 L 39.44304 68.40004 L 39.24683 70.60414 L 39.05063 73.52293 L 38.85443 80.69513 Z " fill="#cccce6"/>
<path transform="matrix(1,0,0,-1,21.696,174.48099)" d="M 135.99051 80.88062 L 136.1867 95.04065 L 136.38292 100.87758 L 136.57913 105.28554 L 136.77535 108.94115 L 136.97156 112.10841 L 137.16776 114.92313 L 137.36397 117.46616 L 137.56018 119.7908 L 137.7564 121.93379 L 137.9526 123.92238 L 138.14882 125.77676 L 138.34503 127.51312 L 138.54125 129.14405 L 138.73746 130.67972 L 138.93366 132.12892 L 139.12987 133.49855 L 139.32608 134.79486 L 139.5223 136.02285 L 139.7185 137.18698 L 139.91472 138.29207 L 140.11093 139.33974 L 140.30715 140.33383 L 140.50336 141.27698 L 140.69957 142.17156 L 140.89577 143.0196 L 141.09198 143.82302 L 141.2882 144.5835 L 141.4844 145.30252 L 141.6806 145.98152 L 141.87682 146.62168 L 142.07303 147.22412 L 142.26924 147.78989 L 142.46546 148.31986 L 142.66167 148.81494 L 142.85788 149.27582 L 143.0541 149.70322 L 143.2503 150.09777 L 143.44652 150.45995 L 143.64273 150.79035 L 143.83895 151.08937 L 144.03516 151.35746 L 144.23137 151.5949 L 144.42755 151.80204 L 144.62377 151.97914 L 144.81998 152.12639 L 145.01619 152.24404 L 145.2124 152.33219 L 145.40862 152.39093 L 145.60483 152.4204 L 145.80104 152.42057 L 145.99726 152.39147 L 146.19347 152.33304 L 146.38968 152.24527 L 146.58589 152.12798 L 146.7821 151.98108 L 146.97832 151.80434 L 147.17452 151.59755 L 147.37073 151.36048 L 147.56694 151.09276 L 147.76316 150.79412 L 147.95935 150.46407 L 148.15557 150.10227 L 148.35178 149.70812 L 148.54799 149.28115 L 148.7442 148.82065 L 148.94042 148.32598 L 149.13663 147.79642 L 149.33284 147.23107 L 149.52906 146.62908 L 149.72527 145.98938 L 149.92147 145.31089 L 150.11768 144.59232 L 150.31389 143.83232 L 150.5101 143.02942 L 150.70632 142.18193 L 150.90253 141.28798 L 151.09874 140.34539 L 151.29496 139.35192 L 151.49117 138.30492 L 151.68737 137.2005 L 151.88358 136.03713 L 152.07979 134.8099 L 152.276 133.51445 L 152.47222 132.14569 L 152.66841 130.69751 L 152.86463 129.16289 L 153.06084 127.53316 L 153.25705 125.79825 L 153.45326 123.94525 L 153.64948 121.9584 L 153.84569 119.8174 L 154.0419 117.49512 L 154.23812 114.95494 L 154.43433 112.14389 L 154.63054 108.98161 L 154.82675 105.33284 L 155.02297 100.93645 L 155.21916 95.12474 L 155.41536 82.28058 L 155.41536 79.10968 L 155.21916 66.2655 L 155.02297 60.45381 L 154.82675 56.0574 L 154.63054 52.40865 L 154.43433 49.24635 L 154.23812 46.43532 L 154.0419 43.89514 L 153.84569 41.57286 L 153.64948 39.43184 L 153.45326 37.445 L 153.25705 35.59201 L 153.06084 33.85709 L 152.86463 32.22737 L 152.66841 30.69273 L 152.47222 29.24455 L 152.276 27.8758 L 152.07979 26.58035 L 151.88358 25.35312 L 151.68737 24.18974 L 151.49117 23.08534 L 151.29496 22.03835 L 151.09874 21.04486 L 150.90253 20.10226 L 150.70632 19.20831 L 150.5101 18.36084 L 150.31389 17.55792 L 150.11768 16.79793 L 149.92147 16.07936 L 149.72527 15.40088 L 149.52906 14.76117 L 149.33284 14.1592 L 149.13663 13.59383 L 148.94042 13.06429 L 148.7442 12.56961 L 148.54799 12.10912 L 148.35178 11.68213 L 148.15557 11.288 L 147.95935 10.9262 L 147.76316 10.59613 L 147.56694 10.2975 L 147.37073 10.02979 L 147.17452 9.7927 L 146.97832 9.58592 L 146.7821 9.40918 L 146.58589 9.26228 L 146.38968 9.14499 L 146.19347 9.0572 L 145.99726 8.9988 L 145.80104 8.9697 L 145.60483 8.96986 L 145.40862 8.99931 L 145.2124 9.05807 L 145.01619 9.14621 L 144.81998 9.26387 L 144.62377 9.41112 L 144.42755 9.58821 L 144.23137 9.79535 L 144.03516 10.03279 L 143.83895 10.30089 L 143.64273 10.5999 L 143.44652 10.93031 L 143.2503 11.2925 L 143.0541 11.68703 L 142.85788 12.11444 L 142.66167 12.57532 L 142.46546 13.07039 L 142.26924 13.60037 L 142.07303 14.16614 L 141.87682 14.76857 L 141.6806 15.40874 L 141.4844 16.08772 L 141.2882 16.80675 L 141.09198 17.56725 L 140.89577 18.37064 L 140.69957 19.2187 L 140.50336 20.11328 L 140.30715 21.05643 L 140.11093 22.05052 L 139.91472 23.09818 L 139.7185 24.20328 L 139.5223 25.36742 L 139.32608 26.5954 L 139.12987 27.8917 L 138.93366 29.26134 L 138.73746 30.71053 L 138.54125 32.24622 L 138.34503 33.87714 L 138.14882 35.61348 L 137.9526 37.46786 L 137.7564 39.45645 L 137.56018 41.59944 L 137.36397 43.9241 L 137.16776 46.46712 L 136.97156 49.28185 L 136.77535 52.44911 L 136.57913 56.10472 L 136.38292 60.51266 L 136.1867 66.34961 L 135.99051 80.50964 Z " fill="#e0e0f0"/>
<path transform="matrix(1,0,0,-1,21.696,174.48099)" stroke-width="1.19553" stroke-linecap="butt" stroke-miterlimit="10" stroke-linejoin="miter" fill="none" stroke="#000080" d="M 0 118.80118 C 0 118.80118 5.84839 117.10684 8.09462 116.61153 C 10.34085 116.11621 13.94304 115.5106 16.18927 115.2313 C 18.43549 114.95198 22.03767 114.679 24.2839 114.59839 C 26.53014 114.51778 30.13231 114.54944 32.37854 114.65019 C 34.62476 114.75096 38.22694 115.05975 40.47318 115.32468 C 42.7194 115.5896 46.3216 116.14783 48.56783 116.55962 C 50.81406 116.9714 54.41623 117.7513 56.66246 118.29266 C 58.90869 118.83405 62.51086 119.80785 64.7571 120.46152 C 67.00333 121.11519 70.6055 122.25523 72.85173 123.00392 C 75.09796 123.75262 78.70015 125.03122 80.94638 125.85767 C 83.19261 126.68413 86.79477 128.07352 89.041 128.96047 C 91.28723 129.8474 94.88942 131.32006 97.13565 132.25019 C 99.38188 133.18032 102.98405 134.70822 105.23029 135.66426 C 107.47652 136.6203 111.0787 138.17603 113.32494 139.14072 C 115.57117 140.10543 119.17334 141.6611 121.41956 142.61717 C 123.66579 143.57324 127.26797 145.10132 129.5142 146.03148 C 131.76044 146.96163 135.36263 148.43418 137.60884 149.3211 C 139.85507 150.20804 143.45726 151.59746 145.70349 152.42392 C 147.94972 153.25038 151.5519 154.52907 153.79813 155.2777 C 156.04434 156.02634 159.64653 157.16584 161.89276 157.81958 C 164.13899 158.47333 167.74118 159.44805 169.98741 159.98947 C 172.23363 160.53092 175.8358 161.31015 178.08203 161.72193 C 180.32826 162.1337 183.93045 162.69228 186.17668 162.95729 C 188.4229 163.2223 194.27132 163.63202 194.27132 163.63202 "/>
<path transform="matrix(1,0,0,-1,21.696,174.48099)" stroke-width="1.19553" stroke-linecap="butt" stroke-miterlimit="10" stroke-linejoin="miter" fill="none" stroke="#800000" d="M 48.56804 116.55965 C 48.56804 116.55965 51.49219 117.12737 52.61528 117.36781 C 53.73837 117.60826 55.53946 118.0209 56.66255 118.29266 C 57.78564 118.56444 59.58673 119.02562 60.70982 119.32654 C 61.83292 119.62746 63.634 120.13362 64.7571 120.46152 C 65.88019 120.78941 67.68127 121.3371 68.80435 121.68982 C 69.92744 122.04256 71.72853 122.62839 72.85162 123.00381 C 73.97472 123.37924 75.7758 123.99977 76.8989 124.39574 C 78.02199 124.79169 79.82307 125.44328 80.94617 125.85757 C 82.06926 126.27188 83.87035 126.95131 84.99344 127.3818 C 86.11653 127.81232 87.9176 128.5159 89.0407 128.96044 C 90.16379 129.40496 91.96487 130.12929 93.08797 130.58571 C 94.21106 131.04212 96.01215 131.78386 97.13524 132.25 C 98.25833 132.71614 100.05942 133.4717 101.18251 133.94539 C 102.3056 134.41909 104.10669 135.18503 105.22977 135.66413 C 106.35286 136.1432 108.15395 136.91605 109.27704 137.39839 C 110.40013 137.88074 112.20122 138.6571 113.32431 139.14052 C 114.4474 139.62395 116.24849 140.40024 117.37158 140.88259 C 118.49467 141.36493 120.29576 142.13785 121.41885 142.61696 C 122.54195 143.09607 124.34302 143.86199 125.46611 144.33568 C 126.5892 144.80937 128.39029 145.56496 129.51338 146.03112 C 130.63648 146.49727 132.43755 147.23899 133.56064 147.69539 C 134.68373 148.1518 136.48482 148.87612 137.60791 149.32067 C 138.731 149.76522 140.53209 150.46892 141.65517 150.89942 C 142.77826 151.32993 145.70244 152.42353 145.70244 152.42353 "/>
<path transform="matrix(1,0,0,-1,21.696,174.48099)" stroke-width="1.19553" stroke-linecap="butt" stroke-miterlimit="10" stroke-linejoin="miter" fill="none" stroke="#800000" d="M 48.56804 44.83063 C 48.56804 44.83063 51.49219 44.2629 52.61528 44.02245 C 53.73837 43.782 55.53946 43.36935 56.66255 43.09758 C 57.78564 42.82582 59.58673 42.36464 60.70982 42.06372 C 61.83292 41.76279 63.634 41.25662 64.7571 40.92874 C 65.88019 40.60085 67.68127 40.05316 68.80435 39.70042 C 69.92744 39.3477 71.72853 38.76186 72.85162 38.38643 C 73.97472 38.011 75.7758 37.39047 76.8989 36.99452 C 78.02199 36.59857 79.82307 35.94698 80.94617 35.53267 C 82.06926 35.11838 83.87035 34.43895 84.99344 34.00844 C 86.11653 33.57794 87.9176 32.87434 89.0407 32.42982 C 90.16379 31.9853 91.96487 31.26096 93.08797 30.80455 C 94.21106 30.34814 96.01215 29.6064 97.13524 29.14026 C 98.25833 28.67412 100.05942 27.91856 101.18251 27.44487 C 102.3056 26.97118 104.10669 26.20523 105.22977 25.72614 C 106.35286 25.24704 108.15395 24.4742 109.27704 23.99187 C 110.40013 23.50952 112.20122 22.73315 113.32431 22.24973 C 114.4474 21.76631 116.24849 20.99002 117.37158 20.50768 C 118.49467 20.02533 120.29576 19.2524 121.41885 18.7733 C 122.54195 18.29419 124.34302 17.52827 125.46611 17.05458 C 126.5892 16.58089 128.39029 15.8253 129.51338 15.35915 C 130.63648 14.89299 132.43755 14.15128 133.56064 13.69485 C 134.68373 13.23845 136.48482 12.51414 137.60791 12.0696 C 138.731 11.62503 140.53209 10.92134 141.65517 10.49083 C 142.77826 10.06033 145.70244 8.96672 145.70244 8.96672 "/>
<path transform="matrix(1,0,0,-1,21.696,174.48099)" stroke-width="1.19553" stroke-linecap="butt" stroke-miterlimit="10" stroke-linejoin="miter" fill="none" stroke="#800000" d="M 135.99051 80.88062 C 135.99051 80.88062 136.13227 92.26611 136.1867 95.04065 C 136.24114 97.81517 136.32848 99.45615 136.38292 100.87758 C 136.43735 102.29903 136.52469 104.16675 136.57913 105.28554 C 136.63356 106.40433 136.7209 107.99448 136.77535 108.94115 C 136.82978 109.8878 136.91712 111.27843 136.97156 112.10841 C 137.02599 112.9384 137.11333 114.17978 137.16776 114.92313 C 137.2222 115.66649 137.30954 116.79077 137.36397 117.46616 C 137.41841 118.14153 137.50576 119.17093 137.56018 119.7908 C 137.61463 120.41068 137.70197 121.36057 137.7564 121.93379 C 137.81084 122.50703 137.89818 123.38919 137.9526 123.92238 C 138.00705 124.45558 138.09439 125.27856 138.14882 125.77676 C 138.20326 126.27496 138.29059 127.04593 138.34503 127.51312 C 138.39948 127.98032 138.4868 128.70468 138.54125 129.14405 C 138.59569 129.58339 138.68302 130.2656 138.73746 130.67972 C 138.7919 131.09386 138.87921 131.73781 138.93366 132.12892 C 138.9881 132.52002 139.07543 133.12868 139.12987 133.49855 C 139.18431 133.86844 139.27164 134.44461 139.32608 134.79486 C 139.38053 135.1451 139.46785 135.69095 139.5223 136.02285 C 139.57674 136.35474 139.66407 136.87213 139.7185 137.18698 C 139.77294 137.50183 139.86028 137.99338 139.91472 138.29207 C 139.96915 138.59076 140.05649 139.05644 140.11093 139.33974 C 140.16536 139.62302 140.2527 140.06505 140.30715 140.33383 C 140.36157 140.60262 140.44892 141.02202 140.50336 141.27698 C 140.55779 141.53195 140.64513 141.92978 140.69957 142.17156 C 140.754 142.41333 140.84134 142.79048 140.89577 143.0196 C 140.95021 143.24874 141.03755 143.60604 141.09198 143.82302 C 141.14643 144.03998 141.23377 144.37824 141.2882 144.5835 C 141.34264 144.78878 141.42998 145.10857 141.4844 145.30252 C 141.53885 145.49649 141.62618 145.79851 141.6806 145.98152 C 141.73505 146.16454 141.82239 146.44927 141.87682 146.62168 C 141.93126 146.79409 142.01859 147.06203 142.07303 147.22412 C 142.12747 147.3862 142.2148 147.63787 142.26924 147.78989 C 142.32369 147.94191 142.41101 148.17765 142.46546 148.31986 C 142.5199 148.46207 142.60723 148.6823 142.66167 148.81494 C 142.71611 148.94757 142.80344 149.15258 142.85788 149.27582 C 142.91233 149.39907 142.99965 149.58919 143.0541 149.70322 C 143.10854 149.81725 143.19586 149.99277 143.2503 150.09777 C 143.30474 150.20275 143.39208 150.36386 143.44652 150.45995 C 143.50095 150.55605 143.58829 150.70304 143.64273 150.79035 C 143.69716 150.87767 143.7845 151.01068 143.83895 151.08937 C 143.89337 151.16806 143.98072 151.28733 144.03516 151.35746 C 144.08959 151.42758 144.17693 151.53322 144.23137 151.5949 C 144.2858 151.65657 144.37313 151.74874 144.42755 151.80204 C 144.482 151.85533 144.56934 151.93415 144.62377 151.97914 C 144.6782 152.02414 144.76555 152.08965 144.81998 152.12639 C 144.87442 152.16313 144.96176 152.21549 145.01619 152.24404 C 145.07064 152.27259 145.15798 152.31182 145.2124 152.33219 C 145.26685 152.35256 145.35419 152.3787 145.40862 152.39093 C 145.46306 152.40317 145.55039 152.41629 145.60483 152.4204 C 145.65927 152.4245 145.7466 152.42458 145.80104 152.42057 C 145.85549 152.41655 145.94281 152.4036 145.99726 152.39147 C 146.0517 152.37934 146.13903 152.35332 146.19347 152.33304 C 146.24791 152.31276 146.33524 152.27371 146.38968 152.24527 C 146.44412 152.21683 146.53145 152.16463 146.58589 152.12798 C 146.64034 152.09133 146.72766 152.02597 146.7821 151.98108 C 146.83654 151.93619 146.92388 151.85755 146.97832 151.80434 C 147.03275 151.75113 147.12007 151.65914 147.17452 151.59755 C 147.22895 151.53598 147.31629 151.4305 147.37073 151.36048 C 147.42516 151.29044 147.5125 151.17134 147.56694 151.09276 C 147.62137 151.01418 147.70871 150.88135 147.76316 150.79412 C 147.81758 150.7069 147.90493 150.56006 147.95935 150.46407 C 148.0138 150.36809 148.10114 150.20714 148.15557 150.10227 C 148.21 149.99738 148.29735 149.82204 148.35178 149.70812 C 148.40622 149.5942 148.49356 149.40427 148.54799 149.28115 C 148.60243 149.15802 148.68978 148.95316 148.7442 148.82065 C 148.79865 148.68813 148.88599 148.46808 148.94042 148.32598 C 148.99486 148.18387 149.0822 147.94834 149.13663 147.79642 C 149.19107 147.64452 149.2784 147.39302 149.33284 147.23107 C 149.38729 147.0691 149.47461 146.80135 149.52906 146.62908 C 149.5835 146.4568 149.67082 146.17227 149.72527 145.98938 C 149.77971 145.80649 149.86702 145.50472 149.92147 145.31089 C 149.9759 145.11707 150.06324 144.79746 150.11768 144.59232 C 150.17212 144.38718 150.25945 144.04917 150.31389 143.83232 C 150.36833 143.61548 150.45566 143.2584 150.5101 143.02942 C 150.56453 142.80043 150.65187 142.42356 150.70632 142.18193 C 150.76074 141.94033 150.84809 141.5428 150.90253 141.28798 C 150.95696 141.03318 151.0443 140.614 151.09874 140.34539 C 151.15317 140.07677 151.24051 139.63501 151.29496 139.35192 C 151.34938 139.0688 151.43672 138.60341 151.49117 138.30492 C 151.5456 138.00643 151.63294 137.51515 151.68737 137.2005 C 151.7418 136.88587 151.82915 136.3688 151.88358 136.03713 C 151.93802 135.70546 152.02536 135.15991 152.07979 134.8099 C 152.13423 134.4599 152.22158 133.88411 152.276 133.51445 C 152.33045 133.1448 152.41779 132.53655 152.47222 132.14569 C 152.52666 131.75485 152.61399 131.11138 152.66841 130.69751 C 152.72286 130.28365 152.81018 129.60192 152.86463 129.16289 C 152.91907 128.72386 153.0064 127.99998 153.06084 127.53316 C 153.11528 127.06633 153.2026 126.29605 153.25705 125.79825 C 153.3115 125.30045 153.39882 124.47801 153.45326 123.94525 C 153.5077 123.41248 153.59503 122.53113 153.64948 121.9584 C 153.70392 121.3857 153.79125 120.43666 153.84569 119.8174 C 153.90013 119.19812 153.98746 118.16975 154.0419 117.49512 C 154.09633 116.82047 154.18367 115.6974 154.23812 114.95494 C 154.29254 114.21248 154.37989 112.97267 154.43433 112.14389 C 154.48876 111.31511 154.5761 109.92662 154.63054 108.98161 C 154.68497 108.03659 154.77231 106.4491 154.82675 105.33284 C 154.88118 104.2166 154.96852 102.3528 155.02297 100.93645 C 155.0774 99.5201 155.16474 97.7132 155.21916 95.12474 C 155.2736 92.53629 155.41536 82.28058 155.41536 82.28058 "/>
<path transform="matrix(1,0,0,-1,21.696,174.48099)" stroke-width="1.19553" stroke-linecap="butt" stroke-miterlimit="10" stroke-linejoin="miter" fill="none" stroke="#800000" d="M 135.99051 80.50964 C 135.99051 80.50964 136.13227 69.12413 136.1867 66.34961 C 136.24114 63.57507 136.32848 61.93411 136.38292 60.51266 C 136.43735 59.09122 136.52469 57.22351 136.57913 56.10472 C 136.63356 54.98593 136.7209 53.39577 136.77535 52.44911 C 136.82978 51.50246 136.91712 50.11183 136.97156 49.28185 C 137.02599 48.45186 137.11333 47.21048 137.16776 46.46712 C 137.2222 45.72375 137.30954 44.59949 137.36397 43.9241 C 137.41841 43.24872 137.50576 42.21931 137.56018 41.59944 C 137.61463 40.97957 137.70197 40.0297 137.7564 39.45645 C 137.81084 38.88322 137.89818 38.00107 137.9526 37.46786 C 138.00705 36.93468 138.09439 36.11168 138.14882 35.61348 C 138.20326 35.11528 138.29059 34.34431 138.34503 33.87714 C 138.39948 33.40994 138.4868 32.68556 138.54125 32.24622 C 138.59569 31.80687 138.68302 31.12466 138.73746 30.71053 C 138.7919 30.2964 138.87921 29.65244 138.93366 29.26134 C 138.9881 28.87024 139.07543 28.26158 139.12987 27.8917 C 139.18431 27.52182 139.27164 26.94563 139.32608 26.5954 C 139.38053 26.24516 139.46785 25.6993 139.5223 25.36742 C 139.57674 25.03552 139.66407 24.51813 139.7185 24.20328 C 139.77294 23.88843 139.86028 23.39687 139.91472 23.09818 C 139.96915 22.7995 140.05649 22.33382 140.11093 22.05052 C 140.16536 21.76723 140.2527 21.32521 140.30715 21.05643 C 140.36157 20.78763 140.44892 20.36824 140.50336 20.11328 C 140.55779 19.8583 140.64513 19.46046 140.69957 19.2187 C 140.754 18.97693 140.84134 18.59976 140.89577 18.37064 C 140.95021 18.14151 141.03755 17.78423 141.09198 17.56725 C 141.14643 17.35027 141.23377 17.01202 141.2882 16.80675 C 141.34264 16.60149 141.42998 16.2817 141.4844 16.08772 C 141.53885 15.89377 141.62618 15.59175 141.6806 15.40874 C 141.73505 15.22572 141.82239 14.94098 141.87682 14.76857 C 141.93126 14.59618 142.01859 14.32822 142.07303 14.16614 C 142.12747 14.00406 142.2148 13.75238 142.26924 13.60037 C 142.32369 13.44835 142.41101 13.21262 142.46546 13.07039 C 142.5199 12.92818 142.60723 12.70795 142.66167 12.57532 C 142.71611 12.44267 142.80344 12.23767 142.85788 12.11444 C 142.91233 11.9912 142.99965 11.80106 143.0541 11.68703 C 143.10854 11.573 143.19586 11.39748 143.2503 11.2925 C 143.30474 11.18752 143.39208 11.0264 143.44652 10.93031 C 143.50095 10.83421 143.58829 10.68723 143.64273 10.5999 C 143.69716 10.51259 143.7845 10.37956 143.83895 10.30089 C 143.89337 10.2222 143.98072 10.10292 144.03516 10.03279 C 144.08959 9.96268 144.17693 9.85703 144.23137 9.79535 C 144.2858 9.73369 144.37313 9.64151 144.42755 9.58821 C 144.482 9.53491 144.56934 9.45612 144.62377 9.41112 C 144.6782 9.36612 144.76555 9.30061 144.81998 9.26387 C 144.87442 9.22713 144.96176 9.17476 145.01619 9.14621 C 145.07064 9.11766 145.15798 9.07845 145.2124 9.05807 C 145.26685 9.0377 145.35419 9.01155 145.40862 8.99931 C 145.46306 8.98708 145.55039 8.97397 145.60483 8.96986 C 145.65927 8.96576 145.7466 8.96568 145.80104 8.9697 C 145.85549 8.97371 145.94281 8.98666 145.99726 8.9988 C 146.0517 9.01093 146.13903 9.03693 146.19347 9.0572 C 146.24791 9.07748 146.33524 9.11655 146.38968 9.14499 C 146.44412 9.17343 146.53145 9.22563 146.58589 9.26228 C 146.64034 9.29893 146.72766 9.36429 146.7821 9.40918 C 146.83654 9.45407 146.92388 9.53271 146.97832 9.58592 C 147.03275 9.63913 147.12007 9.73111 147.17452 9.7927 C 147.22895 9.85428 147.31629 9.95975 147.37073 10.02979 C 147.42516 10.09982 147.5125 10.21892 147.56694 10.2975 C 147.62137 10.37607 147.70871 10.50891 147.76316 10.59613 C 147.81758 10.68336 147.90493 10.8302 147.95935 10.9262 C 148.0138 11.02217 148.10114 11.18312 148.15557 11.288 C 148.21 11.39287 148.29735 11.5682 148.35178 11.68213 C 148.40622 11.79607 148.49356 11.986 148.54799 12.10912 C 148.60243 12.23224 148.68978 12.4371 148.7442 12.56961 C 148.79865 12.70213 148.88599 12.92218 148.94042 13.06429 C 148.99486 13.20639 149.0822 13.44191 149.13663 13.59383 C 149.19107 13.74574 149.2784 13.99722 149.33284 14.1592 C 149.38729 14.32115 149.47461 14.58891 149.52906 14.76117 C 149.5835 14.93344 149.67082 15.21797 149.72527 15.40088 C 149.77971 15.58377 149.86702 15.88554 149.92147 16.07936 C 149.9759 16.2732 150.06324 16.5928 150.11768 16.79793 C 150.17212 17.00307 150.25945 17.34108 150.31389 17.55792 C 150.36833 17.77477 150.45566 18.13185 150.5101 18.36084 C 150.56453 18.58983 150.65187 18.96669 150.70632 19.20831 C 150.76074 19.44994 150.84809 19.84746 150.90253 20.10226 C 150.95696 20.35709 151.0443 20.77625 151.09874 21.04486 C 151.15317 21.31349 151.24051 21.75523 151.29496 22.03835 C 151.34938 22.32146 151.43672 22.78685 151.49117 23.08534 C 151.5456 23.38383 151.63294 23.87509 151.68737 24.18974 C 151.7418 24.5044 151.82915 25.02144 151.88358 25.35312 C 151.93802 25.6848 152.02536 26.23033 152.07979 26.58035 C 152.13423 26.93036 152.22158 27.50615 152.276 27.8758 C 152.33045 28.24545 152.41779 28.85371 152.47222 29.24455 C 152.52666 29.63539 152.61399 30.27888 152.66841 30.69273 C 152.72286 31.1066 152.81018 31.78833 152.86463 32.22737 C 152.91907 32.6664 153.0064 33.39027 153.06084 33.85709 C 153.11528 34.32391 153.2026 35.09421 153.25705 35.59201 C 153.3115 36.08981 153.39882 36.91223 153.45326 37.445 C 153.5077 37.97777 153.59503 38.85912 153.64948 39.43184 C 153.70392 40.00456 153.79125 40.95358 153.84569 41.57286 C 153.90013 42.19212 153.98746 43.22049 154.0419 43.89514 C 154.09633 44.5698 154.18367 45.69286 154.23812 46.43532 C 154.29254 47.17778 154.37989 48.41757 154.43433 49.24635 C 154.48876 50.07515 154.5761 51.46362 154.63054 52.40865 C 154.68497 53.35367 154.77231 54.94116 154.82675 56.0574 C 154.88118 57.17366 154.96852 59.03746 155.02297 60.45381 C 155.0774 61.87016 155.16474 63.67705 155.21916 66.2655 C 155.2736 68.85396 155.41536 79.10968 155.41536 79.10968 "/>
<path transform="matrix(1,0,0,-1,21.696,174.48099)" stroke-width="1.19553" stroke-linecap="butt" stroke-miterlimit="10" stroke-linejoin="miter" fill="none" stroke="#800000" d="M 155.41773 77.10869 L 155.41773 84.28159 "/>
<path transform="matrix(1,0,0,-1,21.696,174.48099)" stroke-width="1.19553" stroke-linecap="butt" stroke-miterlimit="10" stroke-linejoin="miter" fill="none" stroke="#800000" d="M 38.85443 80.69513 C 38.85443 80.69513 38.92531 84.78433 38.95253 85.77945 C 38.97974 86.77457 39.0234 87.35712 39.05063 87.86732 C 39.07784 88.37753 39.12152 89.05182 39.14874 89.45677 C 39.17595 89.86174 39.21962 90.44046 39.24683 90.78612 C 39.27405 91.13177 39.31773 91.6423 39.34494 91.9481 C 39.37216 92.2539 39.41583 92.71376 39.44304 92.99022 C 39.47026 93.26668 39.51395 93.68712 39.54115 93.94072 C 39.56837 94.19432 39.61205 94.58296 39.63925 94.81807 C 39.66647 95.05319 39.71016 95.4156 39.73737 95.63533 C 39.76459 95.85506 39.80826 96.19516 39.83546 96.4018 C 39.86269 96.60841 39.90637 96.92929 39.93358 97.12457 C 39.9608 97.31984 40.00447 97.6239 40.03168 97.80919 C 40.0589 97.99446 40.10258 98.28365 40.12979 98.46 C 40.15701 98.63638 40.20068 98.91202 40.22789 99.08046 C 40.25511 99.24889 40.29878 99.51274 40.32599 99.674 C 40.35321 99.83527 40.3969 100.08812 40.4241 100.24281 C 40.45131 100.3975 40.495 100.64029 40.5222 100.78896 C 40.54941 100.93762 40.59311 101.17119 40.62032 101.3143 C 40.64752 101.45741 40.69121 101.68246 40.71841 101.82042 C 40.74562 101.95839 40.78932 102.17549 40.81653 102.30862 C 40.84373 102.44176 40.88742 102.65146 40.91463 102.78009 C 40.94183 102.90874 40.98553 103.1114 41.01274 103.23582 C 41.03995 103.36023 41.08363 103.55643 41.11084 103.67688 C 41.13805 103.79732 41.18175 103.9873 41.20895 104.10399 C 41.23616 104.22069 41.27985 104.40488 41.30705 104.518 C 41.33426 104.63113 41.37796 104.80971 41.40517 104.91945 C 41.43237 105.0292 41.47606 105.20251 41.50327 105.30905 C 41.53047 105.41559 41.57416 105.58386 41.60138 105.68732 C 41.62859 105.79079 41.67226 105.95428 41.69948 106.05481 C 41.72668 106.15535 41.77036 106.3142 41.79758 106.41191 C 41.82478 106.50963 41.86847 106.66411 41.89569 106.75912 C 41.9229 106.85414 41.96657 107.00435 41.99379 107.09676 C 42.021 107.18918 42.06468 107.33533 42.0919 107.42525 C 42.11911 107.51517 42.16278 107.6574 42.19 107.7449 C 42.21721 107.83243 42.2609 107.97086 42.28812 108.05603 C 42.31532 108.1412 42.359 108.27597 42.38622 108.3589 C 42.41342 108.44183 42.4571 108.57306 42.48433 108.65381 C 42.51154 108.73456 42.5552 108.86234 42.58243 108.941 C 42.60963 109.01964 42.65332 109.1441 42.68054 109.2207 C 42.70775 109.2973 42.75142 109.41852 42.77864 109.49312 C 42.80585 109.56773 42.84953 109.68579 42.87674 109.75845 C 42.90396 109.83113 42.94763 109.94614 42.97484 110.01694 C 43.00206 110.08774 43.04573 110.19977 43.07294 110.26872 C 43.10016 110.33768 43.14384 110.44682 43.17105 110.51398 C 43.19827 110.58115 43.24194 110.68745 43.26915 110.75287 C 43.29637 110.81828 43.34006 110.92183 43.36726 110.98555 C 43.39449 111.04926 43.43816 111.15012 43.46536 111.21216 C 43.49258 111.27422 43.53627 111.37242 43.56348 111.43283 C 43.5907 111.49324 43.63437 111.58885 43.66158 111.64769 C 43.6888 111.70651 43.73248 111.7996 43.75969 111.85687 C 43.78691 111.91414 43.83058 112.00471 43.85779 112.06046 C 43.88501 112.11618 43.9287 112.20433 43.9559 112.25856 C 43.98312 112.31279 44.0268 112.39857 44.054 112.45132 C 44.0812 112.50407 44.12491 112.58752 44.15211 112.63882 C 44.17932 112.69011 44.223 112.77122 44.25021 112.82109 C 44.27742 112.87096 44.32112 112.94981 44.34833 112.99829 C 44.37553 113.04677 44.41922 113.12343 44.44643 113.17053 C 44.47363 113.21762 44.51732 113.29208 44.54453 113.33783 C 44.57173 113.38358 44.61543 113.45583 44.64264 113.50023 C 44.66985 113.54463 44.71353 113.61479 44.74074 113.65787 C 44.76794 113.70096 44.81165 113.76901 44.83885 113.8108 C 44.86606 113.8526 44.90974 113.91858 44.93695 113.9591 C 44.96416 113.99962 45.00786 114.06357 45.03506 114.1028 C 45.06227 114.14204 45.10596 114.204 45.13316 114.24197 C 45.16037 114.27997 45.20406 114.33992 45.23128 114.37668 C 45.25848 114.41344 45.30215 114.47142 45.32938 114.50696 C 45.35658 114.54251 45.40027 114.59856 45.42749 114.6329 C 45.4547 114.66724 45.49837 114.72136 45.52559 114.7545 C 45.5528 114.78764 45.59648 114.83989 45.6237 114.87186 C 45.65091 114.90382 45.69458 114.95415 45.7218 114.98494 C 45.74901 115.01575 45.79268 115.06424 45.8199 115.09389 C 45.8471 115.12352 45.8908 115.17015 45.91801 115.19865 C 45.94522 115.22716 45.98889 115.27196 46.01611 115.29932 C 46.04332 115.32669 46.087 115.36966 46.11423 115.3959 C 46.14143 115.42213 46.1851 115.46332 46.21233 115.48845 C 46.23953 115.51358 46.28322 115.553 46.31044 115.57701 C 46.33765 115.60103 46.38132 115.63867 46.40852 115.66159 C 46.43575 115.6845 46.47943 115.7204 46.50664 115.74222 C 46.53386 115.76404 46.57753 115.79817 46.60474 115.81891 C 46.63196 115.83965 46.67564 115.87206 46.70285 115.89171 C 46.73007 115.91136 46.77374 115.9421 46.80095 115.96068 C 46.82817 115.97928 46.87186 116.00826 46.89906 116.02577 C 46.92628 116.0433 46.96996 116.07056 46.99716 116.08702 C 47.02438 116.10349 47.06807 116.12909 47.09528 116.1445 C 47.1225 116.15993 47.16617 116.18379 47.19337 116.19815 C 47.2206 116.21252 47.26427 116.23474 47.29147 116.24806 C 47.3187 116.26138 47.36238 116.2819 47.38959 116.29419 C 47.41681 116.30647 47.46048 116.32536 47.48769 116.33661 C 47.51491 116.34787 47.5586 116.36507 47.5858 116.37527 C 47.61302 116.38547 47.6567 116.40106 47.6839 116.41023 C 47.7111 116.41942 47.7548 116.43333 47.78201 116.44148 C 47.80922 116.44963 47.8529 116.46191 47.88011 116.46904 C 47.90732 116.47617 47.95102 116.4868 47.97823 116.49292 C 48.00543 116.49904 48.04912 116.50803 48.07632 116.51312 C 48.10353 116.51822 48.14723 116.52557 48.17444 116.52965 C 48.20164 116.53372 48.24533 116.53946 48.27254 116.54251 C 48.29974 116.54556 48.34344 116.54964 48.37065 116.55168 C 48.39786 116.55371 48.44154 116.55621 48.46875 116.55722 C 48.49596 116.55824 48.56685 116.5591 48.56685 116.5591 "/>
<path transform="matrix(1,0,0,-1,21.696,174.48099)" stroke-width="1.19553" stroke-linecap="butt" stroke-miterlimit="10" stroke-linejoin="miter" fill="none" stroke="#800000" d="M 38.85443 80.69513 C 38.85443 80.69513 38.92531 76.60593 38.95253 75.61081 C 38.97974 74.61568 39.0234 74.03314 39.05063 73.52293 C 39.07784 73.01273 39.12152 72.33844 39.14874 71.93347 C 39.17595 71.5285 39.21962 70.9498 39.24683 70.60414 C 39.27405 70.25847 39.31773 69.74794 39.34494 69.44214 C 39.37216 69.13634 39.41583 68.6765 39.44304 68.40004 C 39.47026 68.12357 39.51395 67.70313 39.54115 67.44952 C 39.56837 67.19592 39.61205 66.8073 39.63925 66.57217 C 39.66647 66.33707 39.71016 65.97466 39.73737 65.75491 C 39.76459 65.53519 39.80826 65.19508 39.83546 64.98846 C 39.86269 64.78185 39.90637 64.46095 39.93358 64.26569 C 39.9608 64.07042 40.00447 63.76634 40.03168 63.58107 C 40.0589 63.39578 40.10258 63.10661 40.12979 62.93024 C 40.15701 62.75386 40.20068 62.47824 40.22789 62.3098 C 40.25511 62.14136 40.29878 61.87752 40.32599 61.71625 C 40.35321 61.555 40.3969 61.30214 40.4241 61.14745 C 40.45131 60.99275 40.495 60.74995 40.5222 60.6013 C 40.54941 60.45264 40.59311 60.21906 40.62032 60.07594 C 40.64752 59.93283 40.69121 59.70778 40.71841 59.56982 C 40.74562 59.43187 40.78932 59.21477 40.81653 59.08163 C 40.84373 58.94849 40.88742 58.7388 40.91463 58.61015 C 40.94183 58.48152 40.98553 58.27884 41.01274 58.15443 C 41.03995 58.03001 41.08363 57.83382 41.11084 57.71338 C 41.13805 57.59293 41.18175 57.40295 41.20895 57.28625 C 41.23616 57.16957 41.27985 56.98538 41.30705 56.87225 C 41.33426 56.75912 41.37796 56.58054 41.40517 56.4708 C 41.43237 56.36105 41.47606 56.18773 41.50327 56.0812 C 41.53047 55.97467 41.57416 55.8064 41.60138 55.70293 C 41.62859 55.59947 41.67226 55.43597 41.69948 55.33543 C 41.72668 55.23491 41.77036 55.07607 41.79758 54.97835 C 41.82478 54.88063 41.86847 54.72614 41.89569 54.63113 C 41.9229 54.53612 41.96657 54.38591 41.99379 54.29349 C 42.021 54.20108 42.06468 54.05493 42.0919 53.96501 C 42.11911 53.87509 42.16278 53.73286 42.19 53.64534 C 42.21721 53.55783 42.2609 53.41939 42.28812 53.33421 C 42.31532 53.24904 42.359 53.11427 42.38622 53.03134 C 42.41342 52.94843 42.4571 52.8172 42.48433 52.73645 C 42.51154 52.65569 42.5552 52.52792 42.58243 52.44926 C 42.60963 52.3706 42.65332 52.24615 42.68054 52.16956 C 42.70775 52.09294 42.75142 51.97174 42.77864 51.89713 C 42.80585 51.82253 42.84953 51.70445 42.87674 51.63179 C 42.90396 51.55913 42.94763 51.4441 42.97484 51.37332 C 43.00206 51.30252 43.04573 51.19048 43.07294 51.12152 C 43.10016 51.05257 43.14384 50.94344 43.17105 50.87627 C 43.19827 50.80911 43.24194 50.7028 43.26915 50.63739 C 43.29637 50.57198 43.34006 50.46841 43.36726 50.40471 C 43.39449 50.34099 43.43816 50.24014 43.46536 50.17809 C 43.49258 50.11603 43.53627 50.01784 43.56348 49.95741 C 43.5907 49.897 43.63437 49.8014 43.66158 49.74257 C 43.6888 49.68373 43.73248 49.59064 43.75969 49.53337 C 43.78691 49.4761 43.83058 49.38553 43.85779 49.3298 C 43.88501 49.27408 43.9287 49.18591 43.9559 49.1317 C 43.98312 49.07747 44.0268 48.99168 44.054 48.93893 C 44.0812 48.88618 44.12491 48.80272 44.15211 48.75143 C 44.17932 48.70013 44.223 48.61902 44.25021 48.56915 C 44.27742 48.5193 44.32112 48.44044 44.34833 48.39197 C 44.37553 48.34349 44.41922 48.26682 44.44643 48.21973 C 44.47363 48.17262 44.51732 48.09818 44.54453 48.05243 C 44.57173 48.00668 44.61543 47.93443 44.64264 47.89003 C 44.66985 47.84563 44.71353 47.77547 44.74074 47.73238 C 44.76794 47.6893 44.81165 47.62123 44.83885 47.57945 C 44.86606 47.53766 44.90974 47.47166 44.93695 47.43115 C 44.96416 47.39064 45.00786 47.32669 45.03506 47.28745 C 45.06227 47.24821 45.10596 47.18626 45.13316 47.14827 C 45.16037 47.11029 45.20406 47.05032 45.23128 47.01357 C 45.25848 46.9768 45.30215 46.91884 45.32938 46.88329 C 45.35658 46.84775 45.40027 46.7917 45.42749 46.75735 C 45.4547 46.723 45.49837 46.6689 45.52559 46.63576 C 45.5528 46.60262 45.59648 46.55037 45.6237 46.5184 C 45.65091 46.48642 45.69458 46.43611 45.7218 46.4053 C 45.74901 46.37451 45.79268 46.32602 45.8199 46.29637 C 45.8471 46.26672 45.8908 46.22011 45.91801 46.1916 C 45.94522 46.1631 45.98889 46.1183 46.01611 46.09093 C 46.04332 46.06357 46.087 46.0206 46.11423 45.99435 C 46.14143 45.96811 46.1851 45.92693 46.21233 45.90181 C 46.23953 45.87668 46.28322 45.83725 46.31044 45.81323 C 46.33765 45.78922 46.38132 45.75157 46.40852 45.72867 C 46.43575 45.70576 46.47943 45.66985 46.50664 45.64804 C 46.53386 45.62622 46.57753 45.59207 46.60474 45.57135 C 46.63196 45.55061 46.67564 45.5182 46.70285 45.49854 C 46.73007 45.47888 46.77374 45.44817 46.80095 45.42957 C 46.82817 45.41098 46.87186 45.382 46.89906 45.36447 C 46.92628 45.34694 46.96996 45.31969 46.99716 45.30322 C 47.02438 45.28676 47.06807 45.26117 47.09528 45.24574 C 47.1225 45.23033 47.16617 45.20647 47.19337 45.1921 C 47.2206 45.17773 47.26427 45.1555 47.29147 45.1422 C 47.3187 45.12888 47.36238 45.10835 47.38959 45.09607 C 47.41681 45.08379 47.46048 45.0649 47.48769 45.05363 C 47.51491 45.04239 47.5586 45.02518 47.5858 45.01498 C 47.61302 45.00478 47.6567 44.9892 47.6839 44.98001 C 47.7111 44.97084 47.7548 44.95692 47.78201 44.94878 C 47.80922 44.94063 47.8529 44.92834 47.88011 44.92122 C 47.90732 44.9141 47.95102 44.90344 47.97823 44.89734 C 48.00543 44.89122 48.04912 44.88222 48.07632 44.87714 C 48.10353 44.87204 48.14723 44.86469 48.17444 44.86061 C 48.20164 44.85654 48.24533 44.8508 48.27254 44.84775 C 48.29974 44.8447 48.34344 44.84062 48.37065 44.83858 C 48.39786 44.83653 48.44154 44.83405 48.46875 44.83302 C 48.49596 44.83202 48.56685 44.83116 48.56685 44.83116 "/>
<path transform="matrix(1,0,0,-1,21.696,174.48099)" stroke-width="1.19553" stroke-linecap="butt" stroke-dasharray="2.98883,2.98883" stroke-miterlimit="10" stroke-linejoin="miter" fill="none" stroke="#800000" d="M 48.56804 116.5591 C 48.56804 116.5591 48.63892 116.55826 48.66614 116.55725 C 48.69334 116.55624 48.73701 116.5538 48.76424 116.55179 C 48.79144 116.54976 48.83513 116.54565 48.86235 116.54262 C 48.88956 116.53958 48.93323 116.53387 48.96045 116.52982 C 48.98766 116.52576 49.03134 116.51842 49.05855 116.51334 C 49.08577 116.50826 49.12944 116.49927 49.15665 116.49318 C 49.18387 116.48708 49.22755 116.47647 49.25476 116.46936 C 49.28198 116.46225 49.32565 116.45 49.35286 116.44185 C 49.38008 116.4337 49.42377 116.41978 49.45097 116.41061 C 49.4782 116.40144 49.52187 116.3859 49.54907 116.3757 C 49.5763 116.3655 49.61998 116.3483 49.64719 116.33707 C 49.67441 116.32584 49.71808 116.30698 49.74529 116.29471 C 49.7725 116.28244 49.8162 116.26195 49.8434 116.24864 C 49.87062 116.23534 49.91429 116.21313 49.9415 116.19878 C 49.96872 116.18443 50.01239 116.16054 50.0396 116.14514 C 50.06682 116.12975 50.1105 116.10419 50.13771 116.08774 C 50.16493 116.07129 50.2086 116.04402 50.23581 116.0265 C 50.26302 116.009 50.30672 115.98006 50.33392 115.96147 C 50.36113 115.9429 50.40482 115.91219 50.43202 115.89255 C 50.45923 115.87291 50.50293 115.84053 50.53014 115.81981 C 50.55734 115.79909 50.60103 115.76494 50.62823 115.74315 C 50.65544 115.72134 50.69914 115.6855 50.72635 115.66258 C 50.75356 115.63968 50.79724 115.60202 50.82445 115.57802 C 50.85165 115.55402 50.89536 115.51465 50.92256 115.48955 C 50.94977 115.46445 50.99345 115.42325 51.02066 115.39702 C 51.04787 115.3708 51.09157 115.32785 51.11877 115.3005 C 51.14598 115.27316 51.18967 115.22838 51.21687 115.19989 C 51.24408 115.1714 51.28778 115.12477 51.31499 115.09514 C 51.3422 115.06552 51.38586 115.01703 51.41309 114.98625 C 51.44029 114.95547 51.48396 114.90518 51.51118 114.87323 C 51.53839 114.84128 51.58208 114.78906 51.6093 114.75594 C 51.6365 114.72282 51.68018 114.66872 51.7074 114.63438 C 51.7346 114.60007 51.77829 114.544 51.80551 114.50848 C 51.83272 114.47296 51.87639 114.41501 51.90361 114.37827 C 51.93082 114.34152 51.9745 114.28162 52.00172 114.24364 C 52.02893 114.20566 52.0726 114.14369 52.09982 114.10448 C 52.12703 114.06526 52.17072 114.00133 52.19794 113.96085 C 52.22514 113.92036 52.26881 113.85439 52.29604 113.8126 C 52.32324 113.77084 52.36693 113.7028 52.39415 113.65974 C 52.42136 113.61667 52.46503 113.54652 52.49225 113.50212 C 52.51945 113.45773 52.56314 113.38551 52.59035 113.33978 C 52.61757 113.29405 52.66124 113.21964 52.68845 113.17255 C 52.71567 113.12547 52.75934 113.04886 52.78654 113.0004 C 52.81377 112.95193 52.85745 112.87311 52.88466 112.82324 C 52.91188 112.77338 52.95555 112.69229 52.98276 112.641 C 53.00998 112.58974 53.05367 112.50633 53.08087 112.4536 C 53.1081 112.40086 53.15176 112.31512 53.17897 112.26091 C 53.20619 112.20671 53.24988 112.11855 53.27708 112.06284 C 53.3043 112.00713 53.34798 111.91656 53.37518 111.85933 C 53.4024 111.8021 53.44609 111.70903 53.4733 111.65022 C 53.50052 111.59142 53.54419 111.49582 53.5714 111.43542 C 53.59862 111.37502 53.6423 111.27686 53.66951 111.21484 C 53.69673 111.15282 53.7404 111.05202 53.76761 110.98831 C 53.79483 110.92462 53.83852 110.82109 53.86572 110.75569 C 53.89293 110.69029 53.93661 110.584 53.96382 110.51686 C 53.99103 110.4497 54.03473 110.34065 54.06194 110.27173 C 54.08914 110.2028 54.13283 110.09074 54.16003 110.01997 C 54.18724 109.94922 54.23093 109.83426 54.25813 109.76161 C 54.28534 109.68895 54.32904 109.57089 54.35625 109.4963 C 54.38345 109.4217 54.42714 109.30054 54.45435 109.22395 C 54.48155 109.14738 54.52525 109.023 54.55246 108.9444 C 54.57967 108.86578 54.62335 108.73802 54.65056 108.65729 C 54.67776 108.57655 54.72147 108.44539 54.74867 108.36247 C 54.77588 108.27957 54.81956 108.14484 54.84677 108.05966 C 54.87398 107.9745 54.91768 107.83612 54.94489 107.74866 C 54.97209 107.66118 55.01576 107.51903 55.04298 107.42914 C 55.07019 107.33925 55.11388 107.19313 55.1411 107.10072 C 55.1683 107.00833 55.21198 106.85818 55.2392 106.7632 C 55.2664 106.66821 55.31009 106.51376 55.33731 106.41609 C 55.36452 106.31842 55.40819 106.15962 55.43541 106.05913 C 55.46262 105.95865 55.50629 105.79523 55.53351 105.69179 C 55.56071 105.58836 55.6044 105.42014 55.63162 105.31363 C 55.65883 105.20712 55.7025 105.03387 55.72972 104.92416 C 55.75693 104.81445 55.80061 104.63593 55.82784 104.52284 C 55.85504 104.40974 55.89871 104.22568 55.92593 104.10904 C 55.95314 103.9924 55.99683 103.80247 56.02405 103.68208 C 56.05125 103.56168 56.09492 103.36555 56.12215 103.24118 C 56.14935 103.11679 56.19304 102.9142 56.22025 102.7856 C 56.24747 102.65701 56.29114 102.44739 56.31834 102.31432 C 56.34557 102.18123 56.38925 101.96426 56.41646 101.82639 C 56.44368 101.6885 56.48735 101.46353 56.51456 101.32048 C 56.54178 101.17743 56.58546 100.94395 56.61267 100.79536 C 56.6399 100.64676 56.68356 100.40404 56.71077 100.24942 C 56.73799 100.0948 56.78168 99.84207 56.80888 99.6809 C 56.8361 99.51973 56.87978 99.25606 56.90698 99.08772 C 56.9342 98.91939 56.97787 98.64389 57.00508 98.46762 C 57.0323 98.29134 57.07599 98.0023 57.1032 97.81712 C 57.13042 97.63194 57.17409 97.32806 57.2013 97.1329 C 57.22852 96.93776 57.2722 96.6171 57.29941 96.41061 C 57.32663 96.20415 57.3703 95.86433 57.3975 95.64479 C 57.42473 95.42525 57.46841 95.06314 57.49562 94.82822 C 57.52283 94.59328 57.56651 94.20491 57.59372 93.95155 C 57.62093 93.6982 57.66463 93.27824 57.69183 93.00209 C 57.71904 92.72595 57.76273 92.26663 57.78993 91.96123 C 57.81714 91.65582 57.86084 91.14604 57.88805 90.80092 C 57.91525 90.45581 57.95894 89.87794 57.98615 89.47385 C 58.01335 89.06975 58.05705 88.39679 58.08426 87.88837 C 58.11147 87.37993 58.15515 86.7304 58.18236 85.80943 C 58.20956 84.88846 58.28046 81.25058 58.28046 81.25058 "/>
<path transform="matrix(1,0,0,-1,21.696,174.48099)" stroke-width="1.19553" stroke-linecap="butt" stroke-dasharray="2.98883,2.98883" stroke-miterlimit="10" stroke-linejoin="miter" fill="none" stroke="#800000" d="M 48.56804 44.83116 C 48.56804 44.83116 48.63892 44.832 48.66614 44.833 C 48.69334 44.834 48.73701 44.83646 48.76424 44.83847 C 48.79144 44.8405 48.83513 44.8446 48.86235 44.84764 C 48.88956 44.85068 48.93323 44.85638 48.96045 44.86044 C 48.98766 44.8645 49.03134 44.87184 49.05855 44.87692 C 49.08577 44.88199 49.12944 44.89098 49.15665 44.89708 C 49.18387 44.90317 49.22755 44.91379 49.25476 44.9209 C 49.28198 44.92801 49.32565 44.94026 49.35286 44.94841 C 49.38008 44.95656 49.42377 44.97047 49.45097 44.97963 C 49.4782 44.9888 49.52187 45.00435 49.54907 45.01456 C 49.5763 45.02475 49.61998 45.04195 49.64719 45.05318 C 49.67441 45.06442 49.71808 45.08328 49.74529 45.09555 C 49.7725 45.10782 49.8162 45.12831 49.8434 45.14162 C 49.87062 45.15492 49.91429 45.17712 49.9415 45.19148 C 49.96872 45.20583 50.01239 45.2297 50.0396 45.2451 C 50.06682 45.26051 50.1105 45.28606 50.13771 45.3025 C 50.16493 45.31895 50.2086 45.34624 50.23581 45.36374 C 50.26302 45.38126 50.30672 45.4102 50.33392 45.42877 C 50.36113 45.44736 50.40482 45.47806 50.43202 45.49771 C 50.45923 45.51735 50.50293 45.54973 50.53014 45.57045 C 50.55734 45.59117 50.60103 45.6253 50.62823 45.64711 C 50.65544 45.66891 50.69914 45.70476 50.72635 45.72766 C 50.75356 45.75058 50.79724 45.78822 50.82445 45.81224 C 50.85165 45.83624 50.89536 45.87561 50.92256 45.90071 C 50.94977 45.92581 50.99345 45.96701 51.02066 45.99323 C 51.04787 46.01945 51.09157 46.0624 51.11877 46.08975 C 51.14598 46.1171 51.18967 46.16188 51.21687 46.19037 C 51.24408 46.21886 51.28778 46.26549 51.31499 46.2951 C 51.3422 46.32474 51.38586 46.37321 51.41309 46.404 C 51.44029 46.43478 51.48396 46.48508 51.51118 46.51703 C 51.53839 46.54898 51.58208 46.60118 51.6093 46.63431 C 51.6365 46.66743 51.68018 46.72154 51.7074 46.75586 C 51.7346 46.79019 51.77829 46.84624 51.80551 46.88177 C 51.83272 46.9173 51.87639 46.97525 51.90361 47.012 C 51.93082 47.04874 51.9745 47.10864 52.00172 47.14662 C 52.02893 47.18459 52.0726 47.24655 52.09982 47.28578 C 52.12703 47.325 52.17072 47.38892 52.19794 47.4294 C 52.22514 47.4699 52.26881 47.53586 52.29604 47.57764 C 52.32324 47.61942 52.36693 47.68744 52.39415 47.73051 C 52.42136 47.77357 52.46503 47.84373 52.49225 47.88812 C 52.51945 47.93251 52.56314 48.00475 52.59035 48.05046 C 52.61757 48.09619 52.66124 48.17062 52.68845 48.2177 C 52.71567 48.26479 52.75934 48.34138 52.78654 48.38985 C 52.81377 48.43831 52.85745 48.51715 52.88466 48.56702 C 52.91188 48.61688 52.95555 48.69797 52.98276 48.74924 C 53.00998 48.80052 53.05367 48.88391 53.08087 48.93665 C 53.1081 48.98938 53.15176 49.07512 53.17897 49.12933 C 53.20619 49.18355 53.24988 49.2717 53.27708 49.32742 C 53.3043 49.38313 53.34798 49.4737 53.37518 49.53093 C 53.4024 49.58817 53.44609 49.68123 53.4733 49.74004 C 53.50052 49.79883 53.54419 49.89444 53.5714 49.95483 C 53.59862 50.01523 53.6423 50.11339 53.66951 50.17542 C 53.69673 50.23744 53.7404 50.33824 53.76761 50.40193 C 53.79483 50.46564 53.83852 50.56917 53.86572 50.63455 C 53.89293 50.69995 53.93661 50.80624 53.96382 50.8734 C 53.99103 50.94055 54.03473 51.0496 54.06194 51.11853 C 54.08914 51.18745 54.13283 51.29951 54.16003 51.37027 C 54.18724 51.44104 54.23093 51.556 54.25813 51.62865 C 54.28534 51.7013 54.32904 51.81935 54.35625 51.89395 C 54.38345 51.96855 54.42714 52.08972 54.45435 52.16629 C 54.48155 52.24287 54.52525 52.36725 54.55246 52.44586 C 54.57967 52.52448 54.62335 52.65222 54.65056 52.73297 C 54.67776 52.8137 54.72147 52.94487 54.74867 53.02777 C 54.77588 53.11069 54.81956 53.24542 54.84677 53.33058 C 54.87398 53.41574 54.91768 53.55412 54.94489 53.6416 C 54.97209 53.72908 55.01576 53.87123 55.04298 53.96112 C 55.07019 54.05101 55.11388 54.19713 55.1411 54.28952 C 55.1683 54.38193 55.21198 54.53207 55.2392 54.62706 C 55.2664 54.72203 55.31009 54.8765 55.33731 54.97417 C 55.36452 55.07184 55.40819 55.23064 55.43541 55.33112 C 55.46262 55.43161 55.50629 55.59503 55.53351 55.69846 C 55.56071 55.8019 55.6044 55.97012 55.63162 56.07663 C 55.65883 56.18314 55.7025 56.35637 55.72972 56.46608 C 55.75693 56.57579 55.80061 56.75433 55.82784 56.86742 C 55.85504 56.9805 55.89871 57.16457 55.92593 57.28122 C 55.95314 57.39786 55.99683 57.58778 56.02405 57.70818 C 56.05125 57.82858 56.09492 58.0247 56.12215 58.14908 C 56.14935 58.27347 56.19304 58.47606 56.22025 58.60466 C 56.24747 58.73325 56.29114 58.94287 56.31834 59.07594 C 56.34557 59.20903 56.38925 59.42598 56.41646 59.56387 C 56.44368 59.70175 56.48735 59.92673 56.51456 60.06978 C 56.54178 60.21283 56.58546 60.44629 56.61267 60.5949 C 56.6399 60.7435 56.68356 60.9862 56.71077 61.14082 C 56.73799 61.29546 56.78168 61.54819 56.80888 61.70935 C 56.8361 61.87053 56.87978 62.1342 56.90698 62.30254 C 56.9342 62.47087 56.97787 62.74635 57.00508 62.92264 C 57.0323 63.09892 57.07599 63.38795 57.1032 63.57314 C 57.13042 63.7583 57.17409 64.0622 57.2013 64.25734 C 57.22852 64.45248 57.2722 64.77316 57.29941 64.97963 C 57.32663 65.18611 57.3703 65.52591 57.3975 65.74547 C 57.42473 65.96501 57.46841 66.3271 57.49562 66.56204 C 57.52283 66.79697 57.56651 67.18535 57.59372 67.4387 C 57.62093 67.69206 57.66463 68.11201 57.69183 68.38815 C 57.71904 68.6643 57.76273 69.12361 57.78993 69.42903 C 57.81714 69.73444 57.86084 70.24422 57.88805 70.58932 C 57.91525 70.93445 57.95894 71.5123 57.98615 71.9164 C 58.01335 72.3205 58.05705 72.99347 58.08426 73.50189 C 58.11147 74.01031 58.15515 74.65985 58.18236 75.58083 C 58.20956 76.50179 58.28046 80.13966 58.28046 80.13966 "/>
<path transform="matrix(1,0,0,-1,21.696,174.48099)" stroke-width="1.19553" stroke-linecap="butt" stroke-miterlimit="10" stroke-linejoin="miter" fill="none" stroke="#800000" d="M 48.56804 44.83063 C 48.56804 44.83063 51.49219 44.2629 52.61528 44.02245 C 53.73837 43.782 55.53946 43.36935 56.66255 43.09758 C 57.78564 42.82582 59.58673 42.36464 60.70982 42.06372 C 61.83292 41.76279 63.634 41.25662 64.7571 40.92874 C 65.88019 40.60085 67.68127 40.05316 68.80435 39.70042 C 69.92744 39.3477 71.72853 38.76186 72.85162 38.38643 C 73.97472 38.011 75.7758 37.39047 76.8989 36.99452 C 78.02199 36.59857 79.82307 35.94698 80.94617 35.53267 C 82.06926 35.11838 83.87035 34.43895 84.99344 34.00844 C 86.11653 33.57794 87.9176 32.87434 89.0407 32.42982 C 90.16379 31.9853 91.96487 31.26096 93.08797 30.80455 C 94.21106 30.34814 96.01215 29.6064 97.13524 29.14026 C 98.25833 28.67412 100.05942 27.91856 101.18251 27.44487 C 102.3056 26.97118 104.10669 26.20523 105.22977 25.72614 C 106.35286 25.24704 108.15395 24.4742 109.27704 23.99187 C 110.40013 23.50952 112.20122 22.73315 113.32431 22.24973 C 114.4474 21.76631 116.24849 20.99002 117.37158 20.50768 C 118.49467 20.02533 120.29576 19.2524 121.41885 18.7733 C 122.54195 18.29419 124.34302 17.52827 125.46611 17.05458 C 126.5892 16.58089 128.39029 15.8253 129.51338 15.35915 C 130.63648 14.89299 132.43755 14.15128 133.56064 13.69485 C 134.68373 13.23845 136.48482 12.51414 137.60791 12.0696 C 138.731 11.62503 140.53209 10.92134 141.65517 10.49083 C 142.77826 10.06033 145.70244 8.96672 145.70244 8.96672 "/>
<symbol id="font_0_5">
<path d="M .45700003 .586 C .461 .6 .461 .602 .461 .609 C .461 .62700006 .447 .63600006 .432 .63600006 C .42200003 .63600006 .40600003 .63 .397 .615 C .395 .61 .387 .579 .38300003 .561 C .37600003 .535 .36900003 .508 .363 .48100005 L .318 .301 C .314 .286 .271 .21600002 .20500002 .21600002 C .15400002 .21600002 .143 .26000003 .143 .29700003 C .143 .34300003 .16000001 .40500004 .194 .49300004 C .21000001 .53400006 .21400002 .545 .21400002 .56500008 C .21400002 .61 .18200001 .6470001 .13200002 .6470001 C .037 .6470001 0 .50200006 0 .49300004 C 0 .48300005 .01 .48300005 .012 .48300005 C .022000002 .48300005 .023 .485 .028000003 .50100007 C .055000009 .595 .095000009 .625 .12900001 .625 C .13700001 .625 .15400002 .625 .15400002 .59300008 C .15400002 .568 .14400001 .54200008 .13700001 .523 C .097 .41700004 .079 .36 .079 .31300003 C .079 .224 .142 .194 .201 .194 C .24000003 .194 .274 .21100001 .30200003 .23900002 C .289 .187 .277 .13800001 .237 .08500001 C .21100001 .051 .17300001 .022 .127 .022 C .113000009 .022 .068 .025000006 .051000008 .06400001 C .067 .06400001 .080000009 .06400001 .094000007 .076000008 C .104 .08500001 .11400001 .098000008 .11400001 .117000009 C .11400001 .148 .087000008 .15200001 .07700001 .15200001 C .054000006 .15200001 .021 .136 .021 .087000008 C .021 .037 .065000008 0 .127 0 C .23 0 .333 .091000009 .361 .20400001 L .45700003 .586 Z "/>
</symbol>
<use xlink:href="#font_0_5" transform="matrix(9.9626,0,0,-9.9626,100.16092,26.591315)" fill="#000080"/>
<symbol id="font_1_5">
<path d="M .63100007 .19400002 C .646 .19400002 .665 .19400002 .665 .214 C .665 .23400001 .646 .23400001 .632 .23400001 L .033 .23400001 C .019000002 .23400001 0 .23400001 0 .214 C 0 .19400002 .019000002 .19400002 .034 .19400002 L .63100007 .19400002 M .632 0 C .646 0 .665 0 .665 .02000001 C .665 .040000008 .646 .040000008 .63100007 .040000008 L .034 .040000008 C .019000002 .040000008 0 .040000008 0 .02000001 C 0 0 .019000002 0 .033 0 L .632 0 Z "/>
</symbol>
<use xlink:href="#font_1_5" transform="matrix(9.9626,0,0,-9.9626,108.43891,23.223956)" fill="#000080"/>
<symbol id="font_0_3">
<path d="M .314 .605 L .4 .605 C .42000003 .605 .43 .605 .43 .625 C .43 .63600006 .42000003 .63600006 .40300004 .63600006 L .32000003 .63600006 L .34100003 .75 C .34500004 .771 .35900004 .842 .365 .8540001 C .374 .873 .39100004 .888 .41200004 .888 C .416 .888 .44200004 .888 .461 .87 C .41700004 .86600008 .407 .8310001 .407 .816 C .407 .793 .425 .781 .444 .781 C .47 .781 .49900005 .8030001 .49900005 .8410001 C .49900005 .8870001 .45300005 .9100001 .41200004 .9100001 C .37800003 .9100001 .31500004 .8920001 .28500004 .793 C .279 .7720001 .27600003 .7620001 .252 .63600006 L .18300002 .63600006 C .164 .63600006 .15300001 .63600006 .15300001 .61700007 C .15300001 .605 .162 .605 .18100001 .605 L .24700001 .605 L .172 .21000001 C .15400002 .113000009 .13700001 .022 .08500001 .022 C .081 .022 .056 .022 .037 .040000008 C .083000008 .043000014 .09200001 .07900001 .09200001 .094000007 C .09200001 .117000009 .074 .12900001 .055 .12900001 C .029 .12900001 0 .10700001 0 .069000009 C 0 .024000004 .044 0 .08500001 0 C .14 0 .18 .059 .19800002 .09700001 C .23000002 .16000001 .25300003 .28100003 .254 .28800003 L .314 .605 Z "/>
</symbol>
<use xlink:href="#font_0_3" transform="matrix(9.9626,0,0,-9.9626,118.92502,26.591315)" fill="#000080"/>
<symbol id="font_1_1">
<path d="M .23200003 .00999999 C .23200003 .012999982 .23200003 .014999986 .215 .03199999 C .09 .15799999 .058 .347 .058 .5 C .058 .674 .096 .84800007 .21900001 .97300007 C .23200003 .985 .23200003 .98700007 .23200003 .99 C .23200003 .99700006 .22800002 1 .222 1 C .21200001 1 .12200001 .93200007 .06299999 .805 C .012000002 .69500008 0 .584 0 .5 C 0 .422 .011 .301 .066 .188 C .126 .065 .21200001 0 .222 0 C .22800002 0 .23200003 .0029999912 .23200003 .00999999 Z "/>
</symbol>
<use xlink:href="#font_1_1" transform="matrix(9.9626,0,0,-9.9626,125.3333,27.03963)" fill="#000080"/>
<symbol id="font_0_4">
<path d="M .305 .31300003 C .311 .33900003 .334 .43100003 .404 .43100003 C .409 .43100003 .433 .43100003 .454 .418 C .426 .41300003 .40600003 .388 .40600003 .36400003 C .40600003 .34800003 .417 .32900004 .444 .32900004 C .46600003 .32900004 .498 .34700004 .498 .38700003 C .498 .43900005 .439 .45300005 .405 .45300005 C .347 .45300005 .312 .40000005 .3 .37700004 C .275 .44300003 .221 .45300005 .19200002 .45300005 C .08800001 .45300005 .031000002 .32400004 .031000002 .29900003 C .031000002 .28900004 .041 .28900004 .043000007 .28900004 C .051000008 .28900004 .054000006 .291 .056 .3 C .09 .40600003 .156 .43100003 .19000001 .43100003 C .209 .43100003 .244 .42200003 .244 .36400003 C .244 .33300004 .22700002 .26600004 .19000001 .126 C .17400001 .064 .13900002 .022000002 .095000009 .022000002 C .08900001 .022000002 .06600001 .022000002 .045 .035 C .07000001 .040000004 .09200001 .061 .09200001 .089 C .09200001 .116000007 .07000001 .124000009 .055000009 .124000009 C .025 .124000009 0 .098000008 0 .06600001 C 0 .020000002 .050000006 0 .094000007 0 C .16000001 0 .19600001 .07000001 .19900002 .076000008 C .21100001 .039 .24700003 0 .307 0 C .41 0 .467 .12900001 .467 .15400002 C .467 .16400002 .458 .16400002 .455 .16400002 C .446 .16400002 .444 .16000001 .442 .15300001 C .409 .046 .341 .022000002 .30900003 .022000002 C .27 .022000002 .254 .054 .254 .08800001 C .254 .11000001 .26 .13200002 .271 .17600002 L .305 .31300003 Z "/>
</symbol>
<use xlink:href="#font_0_4" transform="matrix(9.9626,0,0,-9.9626,128.51091,24.65857)" fill="#000080"/>
<symbol id="font_1_2">
<path d="M .232 .5 C .232 .578 .22100002 .699 .16600001 .81200006 C .106 .93500009 .020000004 1 .009999998 1 C .0040000008 1 0 .99600008 0 .99 C 0 .98700007 0 .985 .019000002 .967 C .117000009 .86800006 .174 .709 .174 .5 C .174 .329 .137 .153 .012999997 .026999996 C 0 .014999986 0 .012999982 0 .00999999 C 0 .003999993 .0040000008 0 .009999998 0 C .020000004 0 .11000001 .06799999 .169 .195 C .22 .305 .232 .416 .232 .5 Z "/>
</symbol>
<use xlink:href="#font_1_2" transform="matrix(9.9626,0,0,-9.9626,134.48387,27.03963)" fill="#000080"/>
<symbol id="font_0_1">
<path d="M .33300004 .38900004 C .31500004 .42600004 .286 .45300005 .24100001 .45300005 C .124 .45300005 0 .30600003 0 .16000001 C 0 .06600001 .055000005 0 .133 0 C .153 0 .20300001 .0040000008 .263 .075 C .27100004 .033000005 .30600003 0 .35400004 0 C .38900004 0 .41200004 .023000002 .42800004 .055000005 C .44500003 .091000009 .45800004 .15200001 .45800004 .15400002 C .45800004 .16400002 .44900004 .16400002 .44600005 .16400002 C .43600003 .16400002 .43500004 .16000001 .43200005 .14600002 C .41500003 .081 .397 .022000002 .35600005 .022000002 C .32900004 .022000002 .32600004 .048 .32600004 .068 C .32600004 .09 .32800005 .098000008 .33900003 .14200002 C .35000003 .18400002 .35200004 .19400002 .36100004 .23200003 L .397 .37200005 C .40400005 .40000005 .40400005 .40200005 .40400005 .40600003 C .40400005 .42300005 .39200003 .43300004 .37500004 .43300004 C .35100005 .43300004 .33600004 .411 .33300004 .38900004 M .26800005 .13000001 C .263 .112 .263 .11000001 .24800001 .093 C .20400001 .038000004 .163 .022000002 .135 .022000002 C .08499999 .022000002 .07100001 .077 .07100001 .116000007 C .07100001 .16600001 .103 .28900004 .126 .335 C .157 .39400003 .202 .43100003 .242 .43100003 C .307 .43100003 .32100005 .34900005 .32100005 .34300003 C .32100005 .337 .31900005 .33100004 .31800003 .32600004 L .26800005 .13000001 Z "/>
</symbol>
<use xlink:href="#font_0_1" transform="matrix(9.9626,0,0,-9.9626,68.0285,103.83158)"/>
<symbol id="font_0_2">
<path d="M .192 .694 C .192 .695 .192 .705 .179 .705 C .156 .705 .083000008 .697 .057 .695 C .049 .694 .038 .693 .038 .675 C .038 .663 .047000003 .663 .062000004 .663 C .11 .663 .112 .656 .112 .646 C .112 .639 .103 .605 .098000008 .584 L .015999999 .25800003 C .0040000008 .20800002 0 .19200002 0 .15700002 C 0 .062000004 .053 0 .127 0 C .24500002 0 .36800004 .14900002 .36800004 .293 C .36800004 .38400004 .31500004 .45300005 .235 .45300005 C .18900001 .45300005 .148 .42400003 .118 .39300005 L .192 .694 M .098000008 .316 C .104 .33800004 .104 .34000004 .113000009 .351 C .162 .41600005 .207 .43100003 .233 .43100003 C .26900003 .43100003 .29600004 .40100003 .29600004 .337 C .29600004 .27800004 .263 .16300002 .24500002 .12500002 C .212 .058000003 .16600001 .022000002 .127 .022000002 C .092999998 .022000002 .060000007 .049000004 .060000007 .123 C .060000007 .14200002 .060000007 .16100002 .076000008 .22400002 L .098000008 .316 Z "/>
</symbol>
<use xlink:href="#font_0_2" transform="matrix(9.9626,0,0,-9.9626,165.72925,106.46058)"/>
<symbol id="font_2_1">
<path d="M .57600006 0 C .59300008 0 .611 0 .611 .019999996 C .611 .040000008 .59300008 .040000008 .57600006 .040000008 L .035000005 .040000008 C .018 .040000008 0 .040000008 0 .019999996 C 0 0 .018 0 .035000005 0 L .57600006 0 Z "/>
</symbol>
<use xlink:href="#font_2_1" transform="matrix(9.9626,0,0,-9.9626,4.147895,166.01859)"/>
<symbol id="font_1_4">
<path d="M .266 .165 L .266 .078 C .266 .042000005 .26400004 .031000002 .19000001 .031000002 L .16900002 .031000002 L .16900002 0 C .21000001 .003 .26200003 .003 .30400003 .003 C .34600003 .003 .39900003 .003 .44000004 0 L .44000004 .031000002 L .41900004 .031000002 C .34500004 .031000002 .34300003 .042000005 .34300003 .078 L .34300003 .165 L .44300003 .165 L .44300003 .19600001 L .34300003 .19600001 L .34300003 .651 C .34300003 .671 .34300003 .67700007 .32700003 .67700007 C .31800003 .67700007 .31500004 .67700007 .307 .665 L 0 .19600001 L 0 .165 L .266 .165 M .272 .19600001 L .028 .19600001 L .272 .569 L .272 .19600001 Z "/>
</symbol>
<use xlink:href="#font_1_4" transform="matrix(9.9626,0,0,-9.9626,11.347952,168.30998)"/>
<use xlink:href="#font_2_1" transform="matrix(9.9626,0,0,-9.9626,4.147895,130.15459)"/>
<symbol id="font_1_3">
<path d="M .07700001 .07700001 L .18300002 .18 C .33900003 .31800003 .39900003 .372 .39900003 .47200004 C .39900003 .586 .30900003 .666 .18700002 .666 C .074 .666 0 .574 0 .485 C 0 .42900003 .05 .42900003 .053000008 .42900003 C .07000001 .42900003 .105000007 .441 .105000007 .48200003 C .105000007 .508 .08700001 .53400006 .052000006 .53400006 C .044000005 .53400006 .042000008 .53400006 .039 .53300008 C .062000004 .59800007 .11600001 .63500007 .17400001 .63500007 C .26500003 .63500007 .308 .554 .308 .47200004 C .308 .39200003 .25800003 .31300003 .20300003 .25100003 L .011000004 .037 C 0 .026 0 .024 0 0 L .37100003 0 L .39900003 .17400001 L .374 .17400001 C .36900003 .14400001 .36200003 .1 .352 .085 C .345 .07700001 .279 .07700001 .257 .07700001 L .07700001 .07700001 Z "/>
</symbol>
<use xlink:href="#font_1_3" transform="matrix(9.9626,0,0,-9.9626,11.567129,132.44599)"/>
<use xlink:href="#font_1_3" transform="matrix(9.9626,0,0,-9.9626,11.567129,61.132997)"/>
<use xlink:href="#font_1_4" transform="matrix(9.9626,0,0,-9.9626,11.347952,25.268982)"/>
<use xlink:href="#font_0_4" transform="matrix(9.9626,0,0,-9.9626,219.8029,96.02958)"/>
<use xlink:href="#font_0_5" transform="matrix(9.9626,0,0,-9.9626,19.363915,9.652319)"/>
<path transform="matrix(1,0,0,-1,21.696,174.48099)" stroke-width="1" stroke-linecap="butt" stroke-miterlimit="10" stroke-linejoin="miter" fill="none" stroke="#929292" d="M 48.56804 78.56926 L 48.56804 82.821 M 145.70412 78.56926 L 145.70412 82.821 "/>
<path transform="matrix(1,0,0,-1,21.696,174.48099)" stroke-width="1" stroke-linecap="butt" stroke-miterlimit="10" stroke-linejoin="miter" fill="none" stroke="#929292" d="M -2.12581 8.96613 L 2.12581 8.96613 M -2.12581 44.83063 L 2.12581 44.83063 M -2.12581 116.55965 L 2.12581 116.55965 M -2.12581 152.42415 L 2.12581 152.42415 "/>
<path transform="matrix(1,0,0,-1,21.696,174.48099)" stroke-width="1" stroke-linecap="butt" stroke-miterlimit="10" stroke-linejoin="miter" fill="none" stroke="#000000" d="M 0 80.69513 L 192.27964 80.69513 "/>
<path transform="matrix(1,0,0,-1,213.97563,93.78586)" d="M 1.99252 0 L -1.19551 1.59401 L 0 0 L -1.19551 -1.59401 "/>
<path transform="matrix(1,0,0,-1,21.696,174.48099)" stroke-width="1" stroke-linecap="butt" stroke-miterlimit="10" stroke-linejoin="miter" fill="none" stroke="#000000" d="M 0 0 L 0 159.39775 "/>
<path transform="matrix(0,-1,-1,-0,21.696,15.083237)" d="M 1.99252 0 L -1.19551 1.59401 L 0 0 L -1.19551 -1.59401 "/>
</svg>
